<svg xmlns="http://www.w3.org/2000/svg" xmlns:xlink="http://www.w3.org/1999/xlink" version="1.1" width="57.114898681640625" height="26.868999481201172" viewBox="0.03299999237060547 0.04799997806549072 57.114898681640625 26.868999481201172">
  <!-- Exported by Scratch - http://scratch.mit.edu/ -->
  <g id="ID0.03132085828110576">
    <g id="ID0.26458741864189506">
      <path id="ID0.839324090629816" fill="#ffffff" stroke="#000000" stroke-width="2" stroke-linecap="butt" d="M 26.043 13.482 C 26.043 20.35 20.444 25.917 13.538 25.917 C 6.632 25.917 1.033 20.35 1.033 13.482 C 1.033 6.615 6.632 1.048 13.538 1.048 C 20.444 1.048 26.043 6.615 26.043 13.482 Z "/>
      <path id="ID0.7733912360854447" fill="none" stroke="#000000" stroke-width="2" stroke-linecap="round" d="M 17.033 1.583 L 40.094 10.643 "/>
      <path id="ID0.4076266046613455" fill="none" stroke="#000000" stroke-width="2" stroke-linecap="round" d="M 22.033 23.25 L 39.233 17.25 "/>
      <path id="ID0.2265371480025351" fill="none" stroke="black" stroke-width="2" stroke-linecap="butt" d="M 35.033 16.583 L 35.033 11.25 L 53.89 11.25 L 53.89 16.583 Z "/>
    </g>
  </g>
  <path id="ID0.6478642048314214" fill="#000000" stroke="#000000" stroke-width="1.356223225593567" d="M 44.5691 6.5491 C 47.7637 6.5491 50.6585 7.3602 52.7546 8.671 C 54.8506 9.9811 56.1479 11.791 56.1479 13.788 C 56.1479 15.785 54.8506 17.5949 52.7546 18.905 C 50.6585 20.2158 47.7637 21.0268 44.5691 21.0268 C 41.3745 21.0268 38.4797 20.2158 36.3836 18.905 C 34.2876 17.5949 32.9903 15.785 32.9903 13.788 C 32.9903 11.791 34.2876 9.9811 36.3836 8.671 C 38.4797 7.3602 41.3745 6.5491 44.5691 6.5491 Z "/>
  <path id="ID0.35963470535352826" fill="#00CC44" stroke="#00CC44" stroke-width="1.0930753946304321" d="M 44.6268 11.1647 C 45.9915 11.1647 47.2278 11.4511 48.1236 11.9135 C 49.0188 12.3758 49.573 13.0147 49.573 13.7198 C 49.573 14.4248 49.0188 15.0637 48.1236 15.5261 C 47.2278 15.9884 45.9915 16.2748 44.6268 16.2748 C 43.2621 16.2748 42.0259 15.9884 41.1301 15.5261 C 40.2349 15.0637 39.6807 14.4248 39.6807 13.7198 C 39.6807 13.0147 40.2349 12.3758 41.1301 11.9135 C 42.0259 11.4511 43.2621 11.1647 44.6268 11.1647 Z "/>
</svg>