<svg version="1.1" xmlns="http://www.w3.org/2000/svg" xmlns:xlink="http://www.w3.org/1999/xlink" width="131.81444" height="88.57932" viewBox="0,0,131.81444,88.57932"><g transform="translate(-174.09278,-135.71035)"><g data-paper-data="{&quot;isPaintingLayer&quot;:true}" fill-rule="nonzero" stroke-linejoin="miter" stroke-miterlimit="10" stroke-dasharray="" stroke-dashoffset="0" style="mix-blend-mode: normal"><path d="M260.25537,180.47659c0,23.12968 -18.85611,41.8779 -42.1137,41.8779c-23.25759,0 -42.1137,-18.74822 -42.1137,-41.8779c0,-23.12637 18.85611,-41.87459 42.1137,-41.87459c23.25759,0 42.1137,18.74822 42.1137,41.87459z" fill="#8f8f8f" stroke="#000000" stroke-width="3.87038" stroke-linecap="butt"/><path d="M301.19352,149.88395l-71.20413,-12.23841" fill="none" stroke="#000000" stroke-width="3.87038" stroke-linecap="round"/><path d="M303.97203,201.06026l-57.85109,12.7939" fill="none" stroke="#000000" stroke-width="3.87038" stroke-linecap="round"/><path d="M237.64482,188.85838l-11.5,6.5" fill="none" stroke="#6e6e6e" stroke-width="2.5" stroke-linecap="round"/><path d="M237.64482,202.85838h-11" fill="none" stroke="#6e6e6e" stroke-width="2.5" stroke-linecap="round"/><path d="M238.64482,175.85838l-13,-5.5" fill="none" stroke="#6e6e6e" stroke-width="2.5" stroke-linecap="round"/><path d="M228.14482,161.35838l13,1" fill="none" stroke="#6e6e6e" stroke-width="2.5" stroke-linecap="round"/><path d="M245.89482,163.35838l-0.01614,1.70023c-0.82877,2.56349 -1.60593,5.17079 -2.54801,7.69506c-0.24991,0.66963 -0.1922,1.61573 -0.80197,1.9886c-0.16257,0.09941 -0.33406,0.1744 -0.51215,0.23132l0.02355,0.07065l-1.47232,0.49077c-0.1321,0.04749 -0.27451,0.07337 -0.42297,0.07337c-0.40895,0 -0.77204,-0.19639 -1.00009,-0.5c-0.69031,-0.00005 -1.24991,-0.55967 -1.24991,-1.25v-1.5c0.02035,-2.14338 0.92148,-2.819 1.59515,-4.47835c0.37045,-0.91247 0.16605,-1.97989 0.469,-2.91693c0,0 0.22902,-0.68705 0.86137,-0.84092c0.27926,-0.55506 0.62608,-1.13058 1.06574,-1.75718l0.4207,-0.02074l-0.05724,-0.17173l1.47232,-0.49077c0.1321,-0.04749 0.27451,-0.07337 0.42297,-0.07337c0.45806,0 0.85857,0.24638 1.07624,0.61385c0.67376,0.30826 0.67376,1.13615 0.67376,1.13615z" fill="#ff0000" stroke="none" stroke-width="0.5" stroke-linecap="butt"/><path d="M240.94796,201.08079c0.02828,0.2804 0.01745,0.54484 -0.14829,0.75595c-0.09965,0.12693 -0.21062,0.24137 -0.33027,0.34623l0.0593,0.0593l-1,1v0c-0.22621,0.22621 -0.53871,0.36612 -0.88388,0.36612c-0.69036,0 -1.25,-0.55964 -1.25,-1.25v-1.5c0,-3.66796 1,-6.90192 1,-10.5c0,0 0,-1.25 1.25,-1.25c0.1381,0 0.26094,0.01526 0.37022,0.0424c2.10111,-1.90013 2.87978,1.64726 2.87978,3.7076c0,1.08053 -0.3385,2.1344 -0.51614,3.20023c-0.17764,1.06587 -0.2156,2.16688 -0.54801,3.19506l0.06415,0.60472c0,0 0,1.03871 -0.94686,1.22241z" fill="#ff0000" stroke="none" stroke-width="0.5" stroke-linecap="butt"/></g></g></svg>