<svg xmlns="http://www.w3.org/2000/svg" xmlns:xlink="http://www.w3.org/1999/xlink" version="1.1" width="54.856998443603516" height="26.868999481201172" viewBox="0.03299999237060547 0.04799997806549072 54.856998443603516 26.868999481201172">
  <!-- Exported by Scratch - http://scratch.mit.edu/ -->
  <g id="ID0.5012842654250562">
    <g id="ID0.0032364833168685436">
      <path id="ID0.5615691891871393" fill="#ffffff" stroke="#000000" stroke-width="2" stroke-linecap="butt" d="M 26.043 13.482 C 26.043 20.35 20.444 25.917 13.538 25.917 C 6.632 25.917 1.033 20.35 1.033 13.482 C 1.033 6.615 6.632 1.048 13.538 1.048 C 20.444 1.048 26.043 6.615 26.043 13.482 Z "/>
      <path id="ID0.31359170377254486" fill="none" stroke="#000000" stroke-width="2" stroke-linecap="round" d="M 17.033 1.583 L 40.094 10.643 "/>
      <path id="ID0.5262729967944324" fill="none" stroke="#000000" stroke-width="2" stroke-linecap="round" d="M 22.033 23.25 L 39.233 17.25 "/>
      <path id="ID0.6970760109834373" fill="#867171" stroke="#000000" stroke-width="0.5" stroke-linecap="butt" d="M 35.033 16.583 L 35.033 11.25 L 53.89 11.25 L 53.89 16.583 Z "/>
    </g>
  </g>
  <path id="ID0.26014108397066593" fill="none" stroke="#000000" stroke-width="0.7804878354072571" d="M 53.0098 12.8963 L 53.0488 12.8963 L 53.0488 14.5159 L 53.0098 14.5159 L 53.0098 12.8963 Z "/>
  <path id="ID0.26014108397066593" fill="none" stroke="#000000" stroke-width="0.7804878354072571" d="M 51.3598 12.8463 L 51.3988 12.8463 L 51.3988 14.4659 L 51.3598 14.4659 L 51.3598 12.8463 Z "/>
  <path id="ID0.26014108397066593" fill="none" stroke="#000000" stroke-width="0.7804878354072571" d="M 49.7098 12.9463 L 49.7488 12.9463 L 49.7488 14.5659 L 49.7098 14.5659 L 49.7098 12.9463 Z "/>
</svg>