<svg xmlns="http://www.w3.org/2000/svg" xmlns:xlink="http://www.w3.org/1999/xlink" version="1.1" width="54.85710144042969" height="26.868499755859375" viewBox="0 -9.5367431640625e-7 54.85710144042969 26.868499755859375"><g><g data-paper-data="{&quot;isPaintingLayer&quot;:true}" fill-rule="nonzero" stroke="#000000" stroke-linecap="none" stroke-linejoin="miter" stroke-miterlimit="10" stroke-dasharray="" stroke-dashoffset="0" font-family="none" font-weight="none" font-size="none" text-anchor="none" style="mix-blend-mode: normal"><path d="M 26.0092 13.4343 C 26.0092 20.3015 20.4107 25.8685 13.5046 25.8685 C 6.5985 25.8685 1 20.3015 1 13.4343 C 1 6.567 6.5985 1 13.5046 1 C 20.4107 1 26.0092 6.567 26.0092 13.4343 Z " data-paper-data="{&quot;origPos&quot;:null}" fill="#ffffff" stroke-width="2" stroke-linecap="butt"/><path d="M 17 1.5352 L 40.0606 10.5947 " data-paper-data="{&quot;origPos&quot;:null}" fill="none" stroke-width="2" stroke-linecap="round"/><path d="M 22 23.2018 L 39.2 17.2018 " data-paper-data="{&quot;origPos&quot;:null}" fill="none" stroke-width="2" stroke-linecap="round"/><g data-paper-data="{&quot;origPos&quot;:null}" stroke-linecap="butt"><path d="M 35 16.5352 L 35 11.2018 L 53.8571 11.2018 L 53.8571 16.5352 Z " data-paper-data="{&quot;origPos&quot;:null}" stroke-width="0.5" fill="#f7ff00"/><path d="M 36.9343 21.7894 C 36.574 21.8343 36.1072 21.7486 35.7671 21.1719 C 35.1321 20.0952 36.2088 19.4602 36.2088 19.4602 L 37.6665 19.388 C 39.966 20.3735 42.4576 20.1909 42.0454 16.8929 C 42.0454 16.8929 41.8904 15.6525 43.1307 15.4975 C 44.371 15.3425 44.5261 16.5828 44.5261 16.5828 C 45.1437 21.5234 40.9497 23.3628 36.9343 21.7894 Z " stroke-width="0.5" fill="#f7ff00"/><path d="M 36.0507 7.6005 C 36.1037 7.4917 36.1622 7.3986 36.2246 7.3191 L 36.1904 7.3258 C 36.273 7.1331 36.3555 6.9404 36.4381 6.7477 C 38.4154 2.2655 43.0453 3.4742 45.1591 7.1847 C 45.8598 8.4146 45.1964 10.1244 45.1964 11.4521 C 45.1964 11.4521 45.1964 12.7021 43.9464 12.7021 C 42.6964 12.7021 42.6964 11.4521 42.6964 11.4521 C 42.6964 10.4496 43.0641 9.4645 43.0641 8.5061 C 43.0641 8.0162 42.4065 7.7462 42.0715 7.3806 C 40.5418 5.7114 39.4612 5.959 38.736 7.7325 C 38.6534 7.9252 38.5708 8.1179 38.4882 8.3106 L 36.6261 9.272 C 36.6261 9.272 35.5026 8.724 36.0507 7.6005 Z " stroke-width="0.5" fill="#f7ff00"/></g></g></g></svg>