<svg xmlns="http://www.w3.org/2000/svg" xmlns:xlink="http://www.w3.org/1999/xlink" version="1.1" width="24.718857884407043" height="15.833922505378723" viewBox="0.2621884346008301 0.4709884524345398 24.718857884407043 15.833922505378723">
  <!-- Exported by Scratch - http://scratch.mit.edu/ -->
  <g id="ID0.5904856491833925">
    <g id="ID0.911548612639308">
      <path id="ID0.9300809800624847" fill="#FF00BF" stroke="none" stroke-width="0" d="M 229.727 182.273 L 229.727 177.159 L 250.182 177.159 L 250.182 182.273 Z " transform="matrix(1.088019609451294,0,0,0.6545827388763428,-247.9,-110.05)"/>
    </g>
  </g>
  <path id="ID0.6478642048314214" fill="#000000" stroke="#000000" stroke-width="1.356223225593567" d="M 12.5191 1.1491 C 15.7137 1.1491 18.6085 1.9602 20.7046 3.271 C 22.8006 4.5811 24.0979 6.391 24.0979 8.388 C 24.0979 10.385 22.8006 12.1949 20.7046 13.505 C 18.6085 14.8158 15.7137 15.6268 12.5191 15.6268 C 9.3245 15.6268 6.4297 14.8158 4.3336 13.505 C 2.2376 12.1949 0.9403 10.385 0.9403 8.388 C 0.9403 6.391 2.2376 4.5811 4.3336 3.271 C 6.4297 1.9602 9.3245 1.1491 12.5191 1.1491 Z "/>
  <path id="ID0.35963470535352826" fill="#00CC44" stroke="#00CC44" stroke-width="1.0930753946304321" d="M 12.8268 5.8147 C 14.1915 5.8147 15.4278 6.1011 16.3236 6.5635 C 17.2188 7.0258 17.773 7.6647 17.773 8.3698 C 17.773 9.0748 17.2188 9.7137 16.3236 10.1761 C 15.4278 10.6384 14.1915 10.9248 12.8268 10.9248 C 11.4621 10.9248 10.2259 10.6384 9.3301 10.1761 C 8.4349 9.7137 7.8807 9.0748 7.8807 8.3698 C 7.8807 7.6647 8.4349 7.0258 9.3301 6.5635 C 10.2259 6.1011 11.4621 5.8147 12.8268 5.8147 Z "/>
</svg>