<svg xmlns="http://www.w3.org/2000/svg" xmlns:xlink="http://www.w3.org/1999/xlink" version="1.1" width="54.856998443603516" height="26.868999481201172" viewBox="0.03299999237060547 0.04799997806549072 54.856998443603516 26.868999481201172">
  <!-- Exported by Scratch - http://scratch.mit.edu/ -->
  <g id="ID0.6259342539124191">
    <g id="ID0.39705172181129456">
      <path id="ID0.7815862349234521" fill="#ffffff" stroke="#000000" stroke-width="2" stroke-linecap="butt" d="M 26.043 13.482 C 26.043 20.35 20.444 25.917 13.538 25.917 C 6.632 25.917 1.033 20.35 1.033 13.482 C 1.033 6.615 6.632 1.048 13.538 1.048 C 20.444 1.048 26.043 6.615 26.043 13.482 Z "/>
      <path id="ID0.268773406278342" fill="none" stroke="#000000" stroke-width="2" stroke-linecap="round" d="M 17.033 1.583 L 40.094 10.643 "/>
      <path id="ID0.41947971750050783" fill="none" stroke="#000000" stroke-width="2" stroke-linecap="round" d="M 22.033 23.25 L 39.233 17.25 "/>
      <path id="ID0.28114764019846916" fill="#FFFFFF" stroke="#000000" stroke-width="0.5" stroke-linecap="butt" d="M 35.033 16.583 L 35.033 11.25 L 53.89 11.25 L 53.89 16.583 Z "/>
    </g>
  </g>
  <path id="ID0.26148475147783756" fill="none" stroke="#FF00BF" stroke-width="0.8502371024253036" d="M 51.8031 15.44 L 52.0656 15.44 L 52.0656 16.112 L 51.8031 16.112 L 51.8031 15.44 Z "/>
  <path id="ID0.26148475147783756" fill="none" stroke="#FF00BF" stroke-width="0.8502371024253036" d="M 50.0531 15.49 L 50.3156 15.49 L 50.3156 16.162 L 50.0531 16.162 L 50.0531 15.49 Z "/>
  <path id="ID0.26148475147783756" fill="none" stroke="#FF00BF" stroke-width="0.8502371024253036" d="M 48.3531 15.49 L 48.6156 15.49 L 48.6156 16.162 L 48.3531 16.162 L 48.3531 15.49 Z "/>
  <path id="ID0.1472044000402093" fill="none" stroke="#000000" stroke-width="0.44736513907893166" d="M 52.8615 13.2203 L 52.8683 13.2202 L 52.8721 13.963 L 52.8653 13.9631 L 52.8615 13.2203 Z "/>
  <path id="ID0.1472044000402093" fill="none" stroke="#000000" stroke-width="0.44736513907893166" d="M 51.9115 13.2203 L 51.9183 13.2202 L 51.9221 13.963 L 51.9153 13.9631 L 51.9115 13.2203 Z "/>
  <path id="ID0.1472044000402093" fill="none" stroke="#000000" stroke-width="0.44736513907893166" d="M 51.0615 13.2203 L 51.0683 13.2202 L 51.0721 13.963 L 51.0653 13.9631 L 51.0615 13.2203 Z "/>
</svg>