<svg version="1.1" xmlns="http://www.w3.org/2000/svg" xmlns:xlink="http://www.w3.org/1999/xlink" width="131.81444" height="88.57932" viewBox="0,0,131.81444,88.57932"><g transform="translate(-174.09278,-135.71034)"><g data-paper-data="{&quot;isPaintingLayer&quot;:true}" fill-rule="nonzero" stroke-linejoin="miter" stroke-miterlimit="10" stroke-dasharray="" stroke-dashoffset="0" style="mix-blend-mode: normal"><path d="M260.25537,180.47658c0,23.12968 -18.85611,41.8779 -42.1137,41.8779c-23.25759,0 -42.1137,-18.74822 -42.1137,-41.8779c0,-23.12637 18.85611,-41.87459 42.1137,-41.87459c23.25759,0 42.1137,18.74822 42.1137,41.87459z" fill="#ff0000" stroke="#000000" stroke-width="3.87038" stroke-linecap="butt"/><path d="M301.19352,149.88395l-71.20413,-12.23841" fill="none" stroke="#000000" stroke-width="3.87038" stroke-linecap="round"/><path d="M303.97203,201.06025l-57.85109,12.7939" fill="none" stroke="#000000" stroke-width="3.87038" stroke-linecap="round"/><path d="M240.14482,179.85837c0,9.94113 -9.84974,18 -22,18c-12.15026,0 -22,-8.05887 -22,-18c0,-9.94113 9.84974,-18 22,-18c12.15026,0 22,8.05887 22,18z" fill="none" stroke="#009313" stroke-width="20" stroke-linecap="butt"/></g></g></svg>