<svg xmlns="http://www.w3.org/2000/svg" xmlns:xlink="http://www.w3.org/1999/xlink" version="1.1" width="56.48279115513409" height="26.929324358259088" viewBox="0.002837553841647633 0.017837539536532887 56.48279115513409 26.929324358259088">
  <!-- Exported by Scratch - http://scratch.mit.edu/ -->
  <g id="ID0.5012842654250562">
    <g id="ID0.0032364833168685436">
      <path id="ID0.5615691891871393" fill="#ffffff" stroke="#000000" stroke-width="2" stroke-linecap="butt" d="M 26.043 13.482 C 26.043 20.35 20.444 25.917 13.538 25.917 C 6.632 25.917 1.033 20.35 1.033 13.482 C 1.033 6.615 6.632 1.048 13.538 1.048 C 20.444 1.048 26.043 6.615 26.043 13.482 Z "/>
      <path id="ID0.31359170377254486" fill="none" stroke="#000000" stroke-width="2" stroke-linecap="round" d="M 17.033 1.583 L 40.094 10.643 "/>
      <path id="ID0.5262729967944324" fill="none" stroke="#000000" stroke-width="2" stroke-linecap="round" d="M 22.033 23.25 L 39.233 17.25 "/>
      <path id="ID0.6970760109834373" fill="none" stroke="black" stroke-width="2" stroke-linecap="butt" d="M 35.033 16.583 L 35.033 11.25 L 53.89 11.25 L 53.89 16.583 Z "/>
    </g>
  </g>
  <path id="ID0.26014108397066593" fill="none" stroke="#000000" stroke-width="0.7804878354072571" d="M 53.0098 12.8963 L 53.0488 12.8963 L 53.0488 14.5159 L 53.0098 14.5159 L 53.0098 12.8963 Z "/>
  <path id="ID0.26014108397066593" fill="none" stroke="#000000" stroke-width="0.7804878354072571" d="M 51.3598 12.8463 L 51.3988 12.8463 L 51.3988 14.4659 L 51.3598 14.4659 L 51.3598 12.8463 Z "/>
  <path id="ID0.26014108397066593" fill="none" stroke="#000000" stroke-width="0.7804878354072571" d="M 49.7098 12.9463 L 49.7488 12.9463 L 49.7488 14.5659 L 49.7098 14.5659 L 49.7098 12.9463 Z "/>
  <path id="ID0.8076270944438875" fill="#666666" stroke="#666666" stroke-width="2.0603248770579157" stroke-linecap="round" d="M 35.5213 10.6558 C 34.7149 10.4556 34.1345 11.3706 33.4073 12.1563 C 32.9129 12.6905 32.0393 12.8905 31.7185 13.5432 C 31.4003 14.1911 31.0812 15.2808 31.6611 15.7113 C 32.871 16.6085 34.6297 16.2925 36.0605 16.7641 C 36.7323 16.9853 37.4795 17.2294 37.9279 17.7755 C 38.4346 18.3924 38.652 19.2367 38.7419 20.0291 C 38.8237 20.7462 38.3431 21.4557 38.4281 22.172 C 38.519 22.9335 38.7032 23.7879 39.2521 24.3231 C 39.7528 24.8111 40.5734 24.814 41.2624 24.9344 C 41.9391 25.0526 42.6688 25.2432 43.3229 25.0331 C 44.0636 24.7952 44.8208 24.3354 45.2167 23.6663 C 45.5916 23.0313 44.9462 21.613 45.433 21.462 C 45.9604 21.2985 46.5915 22.5777 47.2452 23.0372 C 47.9355 23.5232 48.6495 24.0218 49.4513 24.2888 C 50.151 24.5221 50.933 24.6537 51.6556 24.5051 C 52.523 24.3263 53.4383 23.9855 54.0469 23.3424 C 54.5275 22.8337 54.5439 22.0228 54.6582 21.3322 C 54.7982 20.4857 55.1795 19.5326 54.8072 18.759 C 54.1764 17.4457 52.1692 16.402 51.8645 15.5202 C 51.7144 15.0873 53.4463 16.6256 53.8797 16.0802 C 54.9675 14.7099 55.6458 12.788 55.408 11.0546 C 55.2234 9.7085 53.8432 8.7729 52.7628 7.9485 C 52.2129 7.5292 51.4204 7.5984 50.7374 7.491 C 49.9575 7.3689 49.1062 6.9521 48.3794 7.2596 C 47.699 7.5479 47.7664 8.9809 47.0655 9.0456 C 46.4084 9.1064 46.0545 8.0821 45.6635 7.5106 C 45.2633 6.9259 45.2422 6.076 44.7118 5.6058 C 44.1823 5.1367 43.4175 4.8505 42.7116 4.892 C 41.989 4.9349 41.3561 5.4349 40.7555 5.8386 C 40.1814 6.2253 39.782 6.8351 39.2205 7.2407 C 38.6613 7.6443 38.0101 7.9086 37.4132 8.2537 C 36.7866 8.6156 36.1489 8.965 35.5445 9.3642 C 35.3939 9.4643 35.5283 9.3926 35.3656 9.6054 Z "/>
</svg>