<svg xmlns="http://www.w3.org/2000/svg" xmlns:xlink="http://www.w3.org/1999/xlink" version="1.1" width="64.27270126342773" height="26.868499755859375" viewBox="0 -9.5367431640625e-7 64.27270126342773 26.868499755859375"><g><g data-paper-data="{&quot;isPaintingLayer&quot;:true}" fill-rule="nonzero" stroke="none" stroke-linecap="none" stroke-linejoin="miter" stroke-miterlimit="10" stroke-dasharray="" stroke-dashoffset="0" font-family="none" font-weight="none" font-size="none" text-anchor="none" style="mix-blend-mode: normal"><path d="M 26.0092 13.4343 C 26.0092 20.3015 20.4107 25.8685 13.5046 25.8685 C 6.5985 25.8685 1 20.3015 1 13.4343 C 1 6.567 6.5985 1 13.5046 1 C 20.4107 1 26.0092 6.567 26.0092 13.4343 Z " data-paper-data="{&quot;origPos&quot;:null}" fill="#ffffff" stroke="#000000" stroke-width="2" stroke-linecap="butt"/><path d="M 20.3259 2.5325 L 41.1384 15.5816 " data-paper-data="{&quot;origPos&quot;:null}" fill="none" stroke="#000000" stroke-width="2" stroke-linecap="round"/><g data-paper-data="{&quot;origPos&quot;:null}" stroke-linecap="round"><path d="M 46.0134 12.6502 L 59.511 12.2939 L 63.2727 13.7643 L 60.6684 16.4099 L 46.6699 16.6452 Z " data-paper-data="{&quot;origPos&quot;:null,&quot;origRot&quot;:0}" fill="#a5b8b2" stroke="#a5b8b2" stroke-width="1"/><path d="M 50.6525 6.9535 L 48.1525 8.2035 L 46.4025 11.3285 L 46.4025 14.3285 L 37.1525 14.3285 " data-paper-data="{&quot;origPos&quot;:null}" fill="none" stroke="#890000" stroke-width="2"/><path d="M 52.6525 21.3285 L 49.1525 20.7035 L 46.7775 18.3285 L 46.4025 14.2035 " data-paper-data="{&quot;origPos&quot;:null}" fill="none" stroke="#890000" stroke-width="2"/></g><path d="M 40.3036 15.5816 C 40.3036 15.0293 40.7513 14.5816 41.3036 14.5816 C 41.8559 14.5816 42.3036 15.0293 42.3036 15.5816 C 42.3036 16.1339 41.8559 16.5816 41.3036 16.5816 C 40.7513 16.5816 40.3036 16.1339 40.3036 15.5816 Z " fill="#000000" stroke="none" stroke-width="0.5" stroke-linecap="butt"/><path d="M 20.6563 23.5102 L 38.3304 15.4164 " fill="none" stroke="#000000" stroke-width="2" stroke-linecap="round"/></g></g></svg>