<svg version="1.1" xmlns="http://www.w3.org/2000/svg" xmlns:xlink="http://www.w3.org/1999/xlink" width="48" height="46" viewBox="0,0,48,46"><g transform="translate(-296,-157)"><g data-paper-data="{&quot;isPaintingLayer&quot;:true}" fill-rule="nonzero" stroke-linejoin="miter" stroke-miterlimit="10" stroke-dasharray="" stroke-dashoffset="0" style="mix-blend-mode: normal"><g><path d="M342,180c0,11.59798 -9.84974,21 -22,21c-12.15026,0 -22,-9.40202 -22,-21c0,-11.59798 9.84974,-21 22,-21c12.15026,0 22,9.40202 22,21z" fill="#fff200" stroke="none" stroke-width="0" stroke-linecap="butt"/><path d="M342,180c0,11.59798 -9.84974,21 -22,21c-12.15026,0 -22,-9.40202 -22,-21c0,-11.59798 9.84974,-21 22,-21c12.15026,0 22,9.40202 22,21z" fill="none" stroke="#d5dc00" stroke-width="4" stroke-linecap="butt"/><path d="M326.22614,170.17184c0,0 -7.41344,-2.61875 -12.89413,0.41753c-1.71083,0.94779 -3.30927,9.18469 1.28063,9.32217c1.74168,0.05217 11.83558,-0.75979 12.61259,0.69073c1.52425,2.84545 1.84516,6.73448 -0.81945,9.09427c-3.77311,3.34149 -12.64485,-0.13597 -12.64485,-0.13597" fill="none" stroke="#d5dc00" stroke-width="4" stroke-linecap="round"/><path d="M319.94041,164.93749l0.8064,30.12502" fill="none" stroke="#d5dc00" stroke-width="4" stroke-linecap="round"/></g></g></g></svg>