<svg version="1.1" xmlns="http://www.w3.org/2000/svg" xmlns:xlink="http://www.w3.org/1999/xlink" width="280" height="39" viewBox="0,0,280,39"><g transform="translate(-180,-160.5)"><g data-paper-data="{&quot;isPaintingLayer&quot;:true}" fill-rule="nonzero" stroke-linecap="butt" stroke-linejoin="miter" stroke-miterlimit="10" stroke-dasharray="" stroke-dashoffset="0" style="mix-blend-mode: normal"><path d="M183,196.5v-33h274v33z" fill="#e9ff8c" stroke="#b6bf00" stroke-width="6"/><text transform="translate(187.5,186) scale(0.5,0.5)" font-size="40" xml:space="preserve" fill="#000000" fill-rule="nonzero" stroke="none" stroke-width="1" stroke-linecap="butt" stroke-linejoin="miter" stroke-miterlimit="10" stroke-dasharray="" stroke-dashoffset="0" font-family="Sans Serif" font-weight="normal" text-anchor="start" style="mix-blend-mode: normal"><tspan x="0" dy="0">Drill (5/s)</tspan></text><text transform="translate(323.29921,186.26875) scale(0.5,0.5)" font-size="40" xml:space="preserve" fill="#000000" fill-rule="nonzero" stroke="none" stroke-width="1" stroke-linecap="butt" stroke-linejoin="miter" stroke-miterlimit="10" stroke-dasharray="" stroke-dashoffset="0" font-family="Sans Serif" font-weight="normal" text-anchor="start" style="mix-blend-mode: normal"><tspan x="0" dy="0">100</tspan></text><g><path d="M319.53169,180c0,4.60656 -3.91218,8.34091 -8.73809,8.34091c-4.82592,0 -8.73809,-3.73435 -8.73809,-8.34091c0,-4.60656 3.91218,-8.34091 8.73809,-8.34091c4.82592,0 8.73809,3.73435 8.73809,8.34091z" fill="#fff200" stroke="none" stroke-width="0"/><path d="M319.53169,180c0,4.60656 -3.91218,8.34091 -8.73809,8.34091c-4.82592,0 -8.73809,-3.73435 -8.73809,-8.34091c0,-4.60656 3.91218,-8.34091 8.73809,-8.34091c4.82592,0 8.73809,3.73435 8.73809,8.34091z" fill="none" stroke="#d5dc00" stroke-width="4"/></g></g></g></svg>